<mxfile host="app.diagrams.net" modified="2023-05-25T16:51:27.230Z" agent="Mozilla/5.0 (Windows NT 10.0; Win64; x64) AppleWebKit/537.36 (KHTML, like Gecko) Chrome/113.0.0.0 Safari/537.36" etag="kHX-nkHqV7ynrTsNzpQ9" version="21.1.4" type="device">
  <diagram name="Side-1" id="P-azuoAGNm17DMQBQDQs">
    <mxGraphModel dx="1912" dy="1064" grid="1" gridSize="10" guides="1" tooltips="1" connect="1" arrows="1" fold="1" page="1" pageScale="1" pageWidth="1169" pageHeight="827" math="0" shadow="0">
      <root>
        <mxCell id="0" />
        <mxCell id="1" parent="0" />
        <mxCell id="VeEM74SfpnkLap-7niek-13" style="edgeStyle=orthogonalEdgeStyle;rounded=0;orthogonalLoop=1;jettySize=auto;html=1;" edge="1" parent="1" source="VeEM74SfpnkLap-7niek-3" target="VeEM74SfpnkLap-7niek-12">
          <mxGeometry relative="1" as="geometry" />
        </mxCell>
        <mxCell id="VeEM74SfpnkLap-7niek-3" value="Full Data set" style="rounded=0;whiteSpace=wrap;html=1;" vertex="1" parent="1">
          <mxGeometry x="102" y="80" width="600" height="60" as="geometry" />
        </mxCell>
        <mxCell id="VeEM74SfpnkLap-7niek-19" style="edgeStyle=orthogonalEdgeStyle;rounded=0;orthogonalLoop=1;jettySize=auto;html=1;entryX=0;entryY=0.5;entryDx=0;entryDy=0;exitX=0.5;exitY=1;exitDx=0;exitDy=0;" edge="1" parent="1" source="VeEM74SfpnkLap-7niek-4" target="VeEM74SfpnkLap-7niek-17">
          <mxGeometry relative="1" as="geometry" />
        </mxCell>
        <mxCell id="VeEM74SfpnkLap-7niek-4" value="Group 1" style="rounded=0;whiteSpace=wrap;html=1;" vertex="1" parent="1">
          <mxGeometry x="90" y="280" width="180" height="60" as="geometry" />
        </mxCell>
        <mxCell id="VeEM74SfpnkLap-7niek-20" style="edgeStyle=orthogonalEdgeStyle;rounded=0;orthogonalLoop=1;jettySize=auto;html=1;" edge="1" parent="1" source="VeEM74SfpnkLap-7niek-6" target="VeEM74SfpnkLap-7niek-17">
          <mxGeometry relative="1" as="geometry" />
        </mxCell>
        <mxCell id="VeEM74SfpnkLap-7niek-6" value="Group Two" style="rounded=0;whiteSpace=wrap;html=1;" vertex="1" parent="1">
          <mxGeometry x="309.5" y="280" width="182.5" height="60" as="geometry" />
        </mxCell>
        <mxCell id="VeEM74SfpnkLap-7niek-21" style="edgeStyle=orthogonalEdgeStyle;rounded=0;orthogonalLoop=1;jettySize=auto;html=1;entryX=1;entryY=0.5;entryDx=0;entryDy=0;exitX=0.5;exitY=1;exitDx=0;exitDy=0;" edge="1" parent="1" source="VeEM74SfpnkLap-7niek-7" target="VeEM74SfpnkLap-7niek-17">
          <mxGeometry relative="1" as="geometry" />
        </mxCell>
        <mxCell id="VeEM74SfpnkLap-7niek-7" value="Group Three" style="rounded=0;whiteSpace=wrap;html=1;" vertex="1" parent="1">
          <mxGeometry x="520" y="280" width="200" height="60" as="geometry" />
        </mxCell>
        <mxCell id="VeEM74SfpnkLap-7niek-27" style="edgeStyle=orthogonalEdgeStyle;rounded=0;orthogonalLoop=1;jettySize=auto;html=1;exitX=0.5;exitY=1;exitDx=0;exitDy=0;" edge="1" parent="1" source="VeEM74SfpnkLap-7niek-9" target="VeEM74SfpnkLap-7niek-26">
          <mxGeometry relative="1" as="geometry" />
        </mxCell>
        <mxCell id="VeEM74SfpnkLap-7niek-9" value="Group 1 - Category removed" style="rounded=0;whiteSpace=wrap;html=1;" vertex="1" parent="1">
          <mxGeometry x="180" y="500" width="110" height="60" as="geometry" />
        </mxCell>
        <mxCell id="VeEM74SfpnkLap-7niek-28" style="edgeStyle=orthogonalEdgeStyle;rounded=0;orthogonalLoop=1;jettySize=auto;html=1;" edge="1" parent="1" source="VeEM74SfpnkLap-7niek-10" target="VeEM74SfpnkLap-7niek-26">
          <mxGeometry relative="1" as="geometry" />
        </mxCell>
        <mxCell id="VeEM74SfpnkLap-7niek-10" value="Group 2 - Category removed" style="rounded=0;whiteSpace=wrap;html=1;" vertex="1" parent="1">
          <mxGeometry x="340.75" y="500" width="110" height="60" as="geometry" />
        </mxCell>
        <mxCell id="VeEM74SfpnkLap-7niek-29" style="edgeStyle=orthogonalEdgeStyle;rounded=0;orthogonalLoop=1;jettySize=auto;html=1;exitX=0.5;exitY=1;exitDx=0;exitDy=0;" edge="1" parent="1" source="VeEM74SfpnkLap-7niek-11" target="VeEM74SfpnkLap-7niek-26">
          <mxGeometry relative="1" as="geometry" />
        </mxCell>
        <mxCell id="VeEM74SfpnkLap-7niek-11" value="Group 3 - Category removed" style="rounded=0;whiteSpace=wrap;html=1;" vertex="1" parent="1">
          <mxGeometry x="500" y="500" width="110" height="60" as="geometry" />
        </mxCell>
        <mxCell id="VeEM74SfpnkLap-7niek-14" style="edgeStyle=orthogonalEdgeStyle;rounded=0;orthogonalLoop=1;jettySize=auto;html=1;" edge="1" parent="1" source="VeEM74SfpnkLap-7niek-12" target="VeEM74SfpnkLap-7niek-4">
          <mxGeometry relative="1" as="geometry" />
        </mxCell>
        <mxCell id="VeEM74SfpnkLap-7niek-15" style="edgeStyle=orthogonalEdgeStyle;rounded=0;orthogonalLoop=1;jettySize=auto;html=1;" edge="1" parent="1" source="VeEM74SfpnkLap-7niek-12" target="VeEM74SfpnkLap-7niek-6">
          <mxGeometry relative="1" as="geometry" />
        </mxCell>
        <mxCell id="VeEM74SfpnkLap-7niek-16" style="edgeStyle=orthogonalEdgeStyle;rounded=0;orthogonalLoop=1;jettySize=auto;html=1;exitX=1;exitY=0.5;exitDx=0;exitDy=0;" edge="1" parent="1" source="VeEM74SfpnkLap-7niek-12" target="VeEM74SfpnkLap-7niek-7">
          <mxGeometry relative="1" as="geometry" />
        </mxCell>
        <mxCell id="VeEM74SfpnkLap-7niek-12" value="Step 1:&lt;br&gt;Split data set into groups" style="ellipse;whiteSpace=wrap;html=1;fillColor=#f8cecc;strokeColor=#b85450;" vertex="1" parent="1">
          <mxGeometry x="342" y="170" width="120" height="80" as="geometry" />
        </mxCell>
        <mxCell id="VeEM74SfpnkLap-7niek-23" style="edgeStyle=orthogonalEdgeStyle;rounded=0;orthogonalLoop=1;jettySize=auto;html=1;entryX=0.5;entryY=0;entryDx=0;entryDy=0;exitX=0.5;exitY=1;exitDx=0;exitDy=0;" edge="1" parent="1" source="VeEM74SfpnkLap-7niek-17" target="VeEM74SfpnkLap-7niek-9">
          <mxGeometry relative="1" as="geometry" />
        </mxCell>
        <mxCell id="VeEM74SfpnkLap-7niek-24" style="edgeStyle=orthogonalEdgeStyle;rounded=0;orthogonalLoop=1;jettySize=auto;html=1;" edge="1" parent="1" source="VeEM74SfpnkLap-7niek-17" target="VeEM74SfpnkLap-7niek-10">
          <mxGeometry relative="1" as="geometry" />
        </mxCell>
        <mxCell id="VeEM74SfpnkLap-7niek-25" style="edgeStyle=orthogonalEdgeStyle;rounded=0;orthogonalLoop=1;jettySize=auto;html=1;exitX=0.5;exitY=1;exitDx=0;exitDy=0;" edge="1" parent="1" source="VeEM74SfpnkLap-7niek-17" target="VeEM74SfpnkLap-7niek-11">
          <mxGeometry relative="1" as="geometry" />
        </mxCell>
        <mxCell id="VeEM74SfpnkLap-7niek-17" value="Step 2:&lt;br&gt;Remove group variable" style="ellipse;whiteSpace=wrap;html=1;fillColor=#f8cecc;strokeColor=#b85450;" vertex="1" parent="1">
          <mxGeometry x="335.75" y="380" width="120" height="80" as="geometry" />
        </mxCell>
        <mxCell id="VeEM74SfpnkLap-7niek-18" style="edgeStyle=orthogonalEdgeStyle;rounded=0;orthogonalLoop=1;jettySize=auto;html=1;exitX=0.5;exitY=1;exitDx=0;exitDy=0;" edge="1" parent="1" source="VeEM74SfpnkLap-7niek-11" target="VeEM74SfpnkLap-7niek-11">
          <mxGeometry relative="1" as="geometry" />
        </mxCell>
        <mxCell id="VeEM74SfpnkLap-7niek-35" style="edgeStyle=orthogonalEdgeStyle;rounded=0;orthogonalLoop=1;jettySize=auto;html=1;" edge="1" parent="1" source="VeEM74SfpnkLap-7niek-26" target="VeEM74SfpnkLap-7niek-32">
          <mxGeometry relative="1" as="geometry" />
        </mxCell>
        <mxCell id="VeEM74SfpnkLap-7niek-36" style="edgeStyle=orthogonalEdgeStyle;rounded=0;orthogonalLoop=1;jettySize=auto;html=1;entryX=0.5;entryY=0;entryDx=0;entryDy=0;" edge="1" parent="1" source="VeEM74SfpnkLap-7niek-26" target="VeEM74SfpnkLap-7niek-34">
          <mxGeometry relative="1" as="geometry" />
        </mxCell>
        <mxCell id="VeEM74SfpnkLap-7niek-26" value="Step 3:&lt;br&gt;Test normality of each group" style="ellipse;whiteSpace=wrap;html=1;fillColor=#f8cecc;strokeColor=#b85450;" vertex="1" parent="1">
          <mxGeometry x="335.75" y="620" width="120" height="80" as="geometry" />
        </mxCell>
        <mxCell id="VeEM74SfpnkLap-7niek-41" style="edgeStyle=orthogonalEdgeStyle;rounded=0;orthogonalLoop=1;jettySize=auto;html=1;" edge="1" parent="1" source="VeEM74SfpnkLap-7niek-32" target="VeEM74SfpnkLap-7niek-40">
          <mxGeometry relative="1" as="geometry" />
        </mxCell>
        <mxCell id="VeEM74SfpnkLap-7niek-32" value="NORMAL" style="whiteSpace=wrap;html=1;aspect=fixed;" vertex="1" parent="1">
          <mxGeometry x="240" y="720" width="80" height="80" as="geometry" />
        </mxCell>
        <mxCell id="VeEM74SfpnkLap-7niek-43" style="edgeStyle=orthogonalEdgeStyle;rounded=0;orthogonalLoop=1;jettySize=auto;html=1;" edge="1" parent="1" source="VeEM74SfpnkLap-7niek-34" target="VeEM74SfpnkLap-7niek-42">
          <mxGeometry relative="1" as="geometry" />
        </mxCell>
        <mxCell id="VeEM74SfpnkLap-7niek-34" value="NOT NORMAL" style="whiteSpace=wrap;html=1;aspect=fixed;" vertex="1" parent="1">
          <mxGeometry x="480" y="720" width="80" height="80" as="geometry" />
        </mxCell>
        <mxCell id="VeEM74SfpnkLap-7niek-46" style="edgeStyle=orthogonalEdgeStyle;rounded=0;orthogonalLoop=1;jettySize=auto;html=1;" edge="1" parent="1" source="VeEM74SfpnkLap-7niek-40" target="VeEM74SfpnkLap-7niek-45">
          <mxGeometry relative="1" as="geometry" />
        </mxCell>
        <mxCell id="VeEM74SfpnkLap-7niek-47" style="edgeStyle=orthogonalEdgeStyle;rounded=0;orthogonalLoop=1;jettySize=auto;html=1;" edge="1" parent="1" source="VeEM74SfpnkLap-7niek-40" target="VeEM74SfpnkLap-7niek-44">
          <mxGeometry relative="1" as="geometry" />
        </mxCell>
        <mxCell id="VeEM74SfpnkLap-7niek-40" value="Step 4:&lt;br&gt;Test that all groups have identical covariance matrices&lt;br&gt;BOX-M" style="ellipse;whiteSpace=wrap;html=1;fillColor=#f8cecc;strokeColor=#b85450;" vertex="1" parent="1">
          <mxGeometry x="210" y="850" width="140" height="100" as="geometry" />
        </mxCell>
        <mxCell id="VeEM74SfpnkLap-7niek-59" style="edgeStyle=orthogonalEdgeStyle;rounded=0;orthogonalLoop=1;jettySize=auto;html=1;" edge="1" parent="1" source="VeEM74SfpnkLap-7niek-42" target="VeEM74SfpnkLap-7niek-56">
          <mxGeometry relative="1" as="geometry" />
        </mxCell>
        <mxCell id="VeEM74SfpnkLap-7niek-42" value="Step 4:&lt;br&gt;Use logistic regression" style="ellipse;whiteSpace=wrap;html=1;fillColor=#f8cecc;strokeColor=#b85450;" vertex="1" parent="1">
          <mxGeometry x="440" y="850" width="160" height="90" as="geometry" />
        </mxCell>
        <mxCell id="VeEM74SfpnkLap-7niek-53" style="edgeStyle=orthogonalEdgeStyle;rounded=0;orthogonalLoop=1;jettySize=auto;html=1;" edge="1" parent="1" source="VeEM74SfpnkLap-7niek-44" target="VeEM74SfpnkLap-7niek-48">
          <mxGeometry relative="1" as="geometry" />
        </mxCell>
        <mxCell id="VeEM74SfpnkLap-7niek-44" value="Identical Sigmas" style="whiteSpace=wrap;html=1;aspect=fixed;" vertex="1" parent="1">
          <mxGeometry x="160" y="980" width="80" height="80" as="geometry" />
        </mxCell>
        <mxCell id="VeEM74SfpnkLap-7niek-54" value="" style="edgeStyle=orthogonalEdgeStyle;rounded=0;orthogonalLoop=1;jettySize=auto;html=1;" edge="1" parent="1" source="VeEM74SfpnkLap-7niek-45" target="VeEM74SfpnkLap-7niek-49">
          <mxGeometry relative="1" as="geometry" />
        </mxCell>
        <mxCell id="VeEM74SfpnkLap-7niek-45" value="Different Sigmas" style="whiteSpace=wrap;html=1;aspect=fixed;" vertex="1" parent="1">
          <mxGeometry x="320" y="980" width="80" height="80" as="geometry" />
        </mxCell>
        <mxCell id="VeEM74SfpnkLap-7niek-58" style="edgeStyle=orthogonalEdgeStyle;rounded=0;orthogonalLoop=1;jettySize=auto;html=1;" edge="1" parent="1" source="VeEM74SfpnkLap-7niek-48" target="VeEM74SfpnkLap-7niek-56">
          <mxGeometry relative="1" as="geometry" />
        </mxCell>
        <mxCell id="VeEM74SfpnkLap-7niek-48" value="Step 5:&lt;br&gt;Use LDA" style="ellipse;whiteSpace=wrap;html=1;fillColor=#f8cecc;strokeColor=#b85450;" vertex="1" parent="1">
          <mxGeometry x="160" y="1090" width="80" height="90" as="geometry" />
        </mxCell>
        <mxCell id="VeEM74SfpnkLap-7niek-57" style="edgeStyle=orthogonalEdgeStyle;rounded=0;orthogonalLoop=1;jettySize=auto;html=1;" edge="1" parent="1" source="VeEM74SfpnkLap-7niek-49" target="VeEM74SfpnkLap-7niek-56">
          <mxGeometry relative="1" as="geometry" />
        </mxCell>
        <mxCell id="VeEM74SfpnkLap-7niek-49" value="Step 5:&lt;br&gt;Use QDA" style="ellipse;whiteSpace=wrap;html=1;fillColor=#f8cecc;strokeColor=#b85450;" vertex="1" parent="1">
          <mxGeometry x="322.87" y="1090" width="74.25" height="90" as="geometry" />
        </mxCell>
        <mxCell id="VeEM74SfpnkLap-7niek-56" value="FINAL STEP: EVALUATE AND CHOSE MODEL" style="ellipse;whiteSpace=wrap;html=1;fillColor=#f8cecc;strokeColor=#b85450;" vertex="1" parent="1">
          <mxGeometry x="330" y="1220" width="300" height="100" as="geometry" />
        </mxCell>
      </root>
    </mxGraphModel>
  </diagram>
</mxfile>
